<?xml version="1.0" encoding="UTF-8" standalone="no"?>
<!-- Created with Inkscape (http://www.inkscape.org/) -->

<svg
   version="1.0"
   width="299.74673"
   height="227.92717"
   id="svg2"
   sodipodi:docname="hamburger.svg"
   inkscape:version="1.1.2 (0a00cf5339, 2022-02-04)"
   xmlns:inkscape="http://www.inkscape.org/namespaces/inkscape"
   xmlns:sodipodi="http://sodipodi.sourceforge.net/DTD/sodipodi-0.dtd"
   xmlns="http://www.w3.org/2000/svg"
   xmlns:svg="http://www.w3.org/2000/svg">
  <sodipodi:namedview
     id="namedview110"
     pagecolor="#505050"
     bordercolor="#eeeeee"
     borderopacity="1"
     inkscape:pageshadow="0"
     inkscape:pageopacity="0"
     inkscape:pagecheckerboard="0"
     showgrid="false"
     inkscape:zoom="1.7385671"
     inkscape:cx="227.19859"
     inkscape:cy="142.9338"
     inkscape:window-width="1920"
     inkscape:window-height="939"
     inkscape:window-x="0"
     inkscape:window-y="34"
     inkscape:window-maximized="1"
     inkscape:current-layer="g6201"
     fit-margin-top="0"
     fit-margin-left="0"
     fit-margin-right="0"
     fit-margin-bottom="0" />
  <defs
     id="defs4">
    <clipPath
       id="clipPath2422">
      <path
         d="M 594.75,104.228 H 0.227 V 736.764 H 594.75 Z"
         id="path2424" />
    </clipPath>
    <clipPath
       id="clipPath2428">
      <path
         d="M 593.879,103.758 H 2.588 v 632.544 h 591.291 z"
         id="path2430" />
    </clipPath>
    <clipPath
       id="clipPath2434">
      <path
         d="m 0.24994,104.228 h 594.5 v 632.544 h -594.5 z"
         id="path2436" />
    </clipPath>
    <clipPath
       id="clipPath2482">
      <path
         d="M 167.599,123.009 H 71.343 V 274.27 h 96.256 z"
         id="path2484" />
    </clipPath>
    <clipPath
       id="clipPath2494">
      <path
         d="M 594.75,104.228 H 0.227 V 736.764 H 594.75 Z"
         id="path2496" />
    </clipPath>
    <clipPath
       id="clipPath2500">
      <path
         d="M 593.879,103.758 H 2.588 v 632.544 h 591.291 z"
         id="path2502" />
    </clipPath>
    <clipPath
       id="clipPath2506">
      <path
         d="m 0.24994,104.228 h 594.5 v 632.544 h -594.5 z"
         id="path2508" />
    </clipPath>
    <clipPath
       id="clipPath2516">
      <path
         d="M 167.599,274.27 H 71.343 v 145.76 h 96.256 z"
         id="path2518" />
    </clipPath>
    <clipPath
       id="clipPath2528">
      <path
         d="M 594.75,104.228 H 0.227 V 736.764 H 594.75 Z"
         id="path2530" />
    </clipPath>
    <clipPath
       id="clipPath2534">
      <path
         d="M 593.879,103.758 H 2.588 v 632.544 h 591.291 z"
         id="path2536" />
    </clipPath>
    <clipPath
       id="clipPath2540">
      <path
         d="m 0.24994,104.228 h 594.5 v 632.544 h -594.5 z"
         id="path2542" />
    </clipPath>
    <clipPath
       id="clipPath2656">
      <path
         d="M 167.599,420.03 H 71.343 v 151.261 h 96.256 z"
         id="path2658" />
    </clipPath>
    <clipPath
       id="clipPath2668">
      <path
         d="M 594.75,104.228 H 0.227 V 736.764 H 594.75 Z"
         id="path2670" />
    </clipPath>
    <clipPath
       id="clipPath2674">
      <path
         d="M 593.879,103.758 H 2.588 v 632.544 h 591.291 z"
         id="path2676" />
    </clipPath>
    <clipPath
       id="clipPath2680">
      <path
         d="m 0.24994,104.228 h 594.5 v 632.544 h -594.5 z"
         id="path2682" />
    </clipPath>
    <clipPath
       id="clipPath2690">
      <path
         d="M 167.599,571.291 H 71.343 v 145.761 h 96.256 z"
         id="path2692" />
    </clipPath>
    <clipPath
       id="clipPath2702">
      <path
         d="M 594.75,104.228 H 0.227 V 736.764 H 594.75 Z"
         id="path2704" />
    </clipPath>
    <clipPath
       id="clipPath2708">
      <path
         d="M 593.879,103.758 H 2.588 v 632.544 h 591.291 z"
         id="path2710" />
    </clipPath>
    <clipPath
       id="clipPath2714">
      <path
         d="m 0.24994,104.228 h 594.5 v 632.544 h -594.5 z"
         id="path2716" />
    </clipPath>
    <clipPath
       id="clipPath2842">
      <path
         d="m 0.24994,104.228 h 594.5 v 632.544 h -594.5 z"
         id="path2844" />
    </clipPath>
    <clipPath
       id="clipPath2856">
      <path
         d="m 0.24994,104.228 h 594.5 v 632.544 h -594.5 z"
         id="path2858" />
    </clipPath>
    <clipPath
       id="clipPath3359">
      <path
         d="m 0.24994,104.228 h 594.5 v 632.544 h -594.5 z"
         id="path3361" />
    </clipPath>
    <clipPath
       id="clipPath3345">
      <path
         d="m 0.24994,104.228 h 594.5 v 632.544 h -594.5 z"
         id="path3347" />
    </clipPath>
    <clipPath
       id="clipPath3149">
      <path
         d="m 0.24994,104.228 h 594.5 v 632.544 h -594.5 z"
         id="path3151" />
    </clipPath>
    <clipPath
       id="clipPath3143">
      <path
         d="M 593.879,103.758 H 2.588 v 632.544 h 591.291 z"
         id="path3145" />
    </clipPath>
    <clipPath
       id="clipPath3137">
      <path
         d="M 594.75,104.228 H 0.227 V 736.764 H 594.75 Z"
         id="path3139" />
    </clipPath>
    <clipPath
       id="clipPath3125">
      <path
         d="M 167.599,123.009 H 71.343 V 420.03 h 96.256 z"
         id="path3127" />
    </clipPath>
    <clipPath
       id="clipPath3115">
      <path
         d="m 0.24994,104.228 h 594.5 v 632.544 h -594.5 z"
         id="path3117" />
    </clipPath>
    <clipPath
       id="clipPath3109">
      <path
         d="M 593.879,103.758 H 2.588 v 632.544 h 591.291 z"
         id="path3111" />
    </clipPath>
    <clipPath
       id="clipPath3103">
      <path
         d="M 594.75,104.228 H 0.227 V 736.764 H 594.75 Z"
         id="path3105" />
    </clipPath>
    <clipPath
       id="clipPath2991">
      <path
         d="m 215.903,615.294 h -18.651 v 72.88 h 18.651 z"
         id="path2993" />
    </clipPath>
    <clipPath
       id="clipPath2899">
      <path
         d="m 0.24994,104.228 h 594.5 v 632.544 h -594.5 z"
         id="path2901" />
    </clipPath>
    <clipPath
       id="clipPath2893">
      <path
         d="M 593.879,103.758 H 2.588 v 632.544 h 591.291 z"
         id="path2895" />
    </clipPath>
    <clipPath
       id="clipPath2887">
      <path
         d="M 594.75,104.228 H 0.227 V 736.764 H 594.75 Z"
         id="path2889" />
    </clipPath>
    <clipPath
       id="clipPath2875">
      <path
         d="M 167.599,420.031 H 71.343 V 563.04 h 96.256 z"
         id="path2877" />
    </clipPath>
    <clipPath
       id="clipPath2865">
      <path
         d="m 0.24994,104.228 h 594.5 v 632.544 h -594.5 z"
         id="path2867" />
    </clipPath>
    <clipPath
       id="clipPath2859">
      <path
         d="M 593.879,103.758 H 2.588 v 632.544 h 591.291 z"
         id="path2861" />
    </clipPath>
    <clipPath
       id="clipPath2853">
      <path
         d="M 594.75,104.228 H 0.227 V 736.764 H 594.75 Z"
         id="path2855" />
    </clipPath>
    <clipPath
       id="clipPath2841">
      <path
         d="M 167.599,563.041 H 71.343 v 154.011 h 96.256 z"
         id="path2843" />
    </clipPath>
    <clipPath
       id="clipPath2769">
      <path
         d="m 0.24994,104.228 h 594.5 v 632.544 h -594.5 z"
         id="path2771" />
    </clipPath>
    <clipPath
       id="clipPath2763">
      <path
         d="M 593.879,103.758 H 2.588 v 632.544 h 591.291 z"
         id="path2765" />
    </clipPath>
    <clipPath
       id="clipPath2757">
      <path
         d="M 594.75,104.228 H 0.227 V 736.764 H 594.75 Z"
         id="path2759" />
    </clipPath>
  </defs>
  <g
     transform="translate(-9.6379942,-12.830805)"
     id="layer1"
     style="fill:#f59e0b;fill-opacity:1">
    <g
       transform="matrix(4.6024378,0,0,4.6024378,70.471443,-413.96992)"
       id="g6201"
       style="fill:#f59e0b;fill-opacity:1">
      <path
         d="m -13.186198,113.69893 c 0,-3.24 0,-6.48 0,-9.72 7.4437499,-0.67875 14.6174999,-13.213754 21.7099999,-10.978754 4.6700001,1.41625 7.5887501,9.265004 9.9050001,13.235004 0.90125,1.58 2.61625,5.46875 4.34,6.23875 5.5225,1.4825 8.1875,-25.388754 16.4225,-1.38875 2.80625,7.20125 3.5775,-6.02 7.075,-4.96375 2.61,0.90625 2.995,7.7475 5.52125,9.11125 0,1.77125 0,3.54125 0,5.3125 -1.43375,-1.01375 -2.45375,-2.55875 -3.19875,-4.12375 -0.77125,-1.4075 -1.4325,-4.6225 -2.54375,-5.495 -0.51125,-0.305 -0.915,0.54375 -1.08375,0.885 -0.795,1.75625 -1.14,3.6325 -2.1725,5.32375 -2.74125,4.785 -5.71,-4.03875 -6.73625,-5.73 -5.44625,-13.985004 -6.8775,12.63875 -14.44875,7.095 -5.22375,-3.77125 -9.08125,-18.215 -14.4037501,-17.80875 -6.45000001,0.865 -11.0225,12.63625 -20.3862499,13.0075"
         id="path3339"
         style="fill:#f59e0b;fill-opacity:1;fill-rule:evenodd;stroke:none" />
      <path
         d="m -13.063591,127.15 c 0,-2.87692 0,-5.75384 0,-8.63076 7.4437497,-0.60268 14.6174997,-11.73299 21.7099997,-9.74845 4.6700003,1.25754 7.5887503,8.22675 9.9050003,11.75186 0.90125,1.40294 2.61625,4.85591 4.34,5.53962 5.5225,1.31637 8.1875,-22.54363 16.4225,-1.23312 2.80625,6.39426 3.5775,-5.34538 7.075,-4.4075 2.61,0.80469 2.995,6.8793 5.52125,8.09022 0,1.57276 0,3.14441 0,4.71717 -1.43375,-0.90015 -2.45375,-2.27201 -3.19875,-3.66163 -0.77125,-1.24977 -1.4325,-4.10449 -2.54375,-4.87922 -0.51125,-0.27082 -0.915,0.48282 -1.08375,0.78582 -0.795,1.55945 -1.14,3.22544 -2.1725,4.72716 -2.74125,4.24878 -5.71,-3.58616 -6.73625,-5.08788 -5.44625,-12.41782 -6.8775,11.22242 -14.44875,6.29992 -5.22375,-3.34864 -9.08125,-16.17379 -14.4037503,-15.81306 -6.44999996,0.76806 -11.0225,11.2202 -20.3862497,11.54985"
         id="path3339-6"
         style="fill:#f59e0b;fill-opacity:1;fill-rule:evenodd;stroke:none;stroke-width:0.942304" />
      <path
         d="m -13.217658,137.86752 c 0,-2.07721 0,-4.15442 0,-6.23164 7.44375,-0.43515 14.6175,-8.47154 21.71,-7.03864 4.67,0.90798 7.58875,5.93993 9.905,8.48516 0.90125,1.01296 2.61625,3.5061 4.34,3.99976 5.5225,0.95045 8.1875,-16.27712 16.4225,-0.89035 2.80625,4.61683 3.5775,-3.85952 7.075,-3.18234 2.61,0.58101 2.995,4.96704 5.52125,5.84136 0,1.13558 0,2.27035 0,3.40593 -1.43375,-0.64993 -2.45375,-1.64045 -3.19875,-2.6438 -0.77125,-0.90237 -1.4325,-2.96356 -2.54375,-3.52293 -0.51125,-0.19554 -0.915,0.34861 -1.08375,0.56739 -0.795,1.12596 -1.14,2.32885 -2.1725,3.41314 -2.74125,3.06773 -5.71,-2.58931 -6.73625,-3.67359 -5.44625,-8.966 -6.8775,8.10289 -14.44875,4.54871 -5.22375,-2.41781 -9.08125,-11.67792 -14.40375,-11.41746 -6.45000001,0.55456 -11.0225,8.10129 -20.38625,8.3393"
         id="path3339-0"
         style="fill:#f59e0b;fill-opacity:1;fill-rule:evenodd;stroke:none;stroke-width:0.800697" />
    </g>
  </g>
</svg>
