<?xml version="1.0" encoding="UTF-8" standalone="no"?>
<svg
   width="16"
   height="16"
   fill="currentColor"
   class="bi bi-collection"
   viewBox="0 0 16 16"
   version="1.1"
   id="svg4"
   sodipodi:docname="collection_add.svg"
   inkscape:version="1.1.2 (0a00cf5339, 2022-02-04)"
   xmlns:inkscape="http://www.inkscape.org/namespaces/inkscape"
   xmlns:sodipodi="http://sodipodi.sourceforge.net/DTD/sodipodi-0.dtd"
   xmlns="http://www.w3.org/2000/svg"
   xmlns:svg="http://www.w3.org/2000/svg">
  <defs
     id="defs8" />
  <sodipodi:namedview
     id="namedview6"
     pagecolor="#505050"
     bordercolor="#eeeeee"
     borderopacity="1"
     inkscape:pageshadow="0"
     inkscape:pageopacity="0"
     inkscape:pagecheckerboard="0"
     showgrid="false"
     inkscape:zoom="38.180504"
     inkscape:cx="9.5860442"
     inkscape:cy="8.0538486"
     inkscape:window-width="1920"
     inkscape:window-height="939"
     inkscape:window-x="0"
     inkscape:window-y="34"
     inkscape:window-maximized="1"
     inkscape:current-layer="svg4" />
  <path
     d="M2.5 3.5a.5.5 0 0 1 0-1h11a.5.5 0 0 1 0 1h-11zm2-2a.5.5 0 0 1 0-1h7a.5.5 0 0 1 0 1h-7zM0 13a1.5 1.5 0 0 0 1.5 1.5h13A1.5 1.5 0 0 0 16 13V6a1.5 1.5 0 0 0-1.5-1.5h-13A1.5 1.5 0 0 0 0 6v7zm1.5.5A.5.5 0 0 1 1 13V6a.5.5 0 0 1 .5-.5h13a.5.5 0 0 1 .5.5v7a.5.5 0 0 1-.5.5h-13z"
     id="path2"
     style="fill:#f59e0b;fill-opacity:1" />
  <path
     style="fill:#f59e0b;fill-opacity:1;stroke-width:0.866048"
     d="m 5.3748532,9.9709999 a 0.37502092,0.5 0 0 1 0,-0.9999999 h 5.2502938 a 0.37502092,0.5 0 0 1 0,0.9999999 z"
     id="path1045" />
  <path
     style="fill:#f59e0b;fill-opacity:1;stroke-width:0.866025"
     d="m 7.5,6.843 a 0.5,0.37499998 0 0 1 1,0 v 5.25 a 0.5,0.37499998 0 0 1 -1,0 z"
     id="path1045-8" />
</svg>
